# xmcd
#
# Track frame offsets:
#  150
#  21399
#  37246
#  52733
#  74824
#  97991
#  116634
#  135066
#  151225
#  171888
#  190809
#  209944
#
# Disc length: 3050 seconds
#
# Revision: 0
# Processed by: cddbd v1.5.1PL2 Copyright (c) Steve Scherf et al.
# Submitted via: Collectorz.com_Music_Collector 6.11
#
DISCID=ab0be80c
DTITLE=The Brand New Heavies - Get Used to It
DYEAR=2006
DGENRE=
TTITLE0=We've Got
TTITLE1=I Don't Know Why (I Love You)
TTITLE2=Get Used To It
TTITLE3=Sex God
TTITLE4=Let's Do It Again
TTITLE5=We Won't Stop
TTITLE6=Right On
TTITLE7=Music
TTITLE8=I Just Realized
TTITLE9=All Fired Up
TTITLE10=Love Is
TTITLE11=I've Been Touched
EXTD=
EXTT0=
EXTT1=
EXTT2=
EXTT3=
EXTT4=
EXTT5=
EXTT6=
EXTT7=
EXTT8=
EXTT9=
EXTT10=
EXTT11=
PLAYORDER=
